# xmcd CD database file
#
# Track frame offsets:
#	150
#	27357
#	44964
#	75180
#	111452
#	119984
#	139269
#	157119
#	168604
#	185601
#	208767
#	229833
#	252359
#	268494
#
# Disc length: 3737 seconds
#
# Revision: 0
# Processed by: cddbd v1.5.2PL0 Copyright (c) Steve Scherf et al.
# Submitted via: CDex 1.77
#
DISCID=e10e970e
DTITLE=Ella Fitzgerald - The Hidden World Of Ella Fitzgerald (Deluxe Limited Edition) CD3 Live and the duke sessions
DYEAR=2016
DGENRE=Jazz
TTITLE0=Louis Bellson - Concerto for drums
TTITLE1=Ella Fitzgerald and Duke Ellington - Caravan
TTITLE2=Ella Fitzgerald and Duke Ellington - Take the A train
TTITLE3=Johnny Hodges and Duke Ellington - Basin Street blues
TTITLE4=Ella Fitzgerald and Duke Ellington - Goody goody (Live at The Opera House)
TTITLE5=Ella Fitzgerald - Body and soul (Live at Newport)
TTITLE6=Ella Fitzgerald - April in Paris (Live at Newport)
TTITLE7=Ella Fitzgerald - Little white lies
TTITLE8=Ella Fitzgerald - Teardrops from my eyes
TTITLE9=Marty Paich and his orchestra - Black rose
TTITLE10=Marty Paich and his orchestra - Nice and easy
TTITLE11=Ella Fitzgerald - Mack the knife (Live in Berlin)
TTITLE12=Ella Fitzgerald - The man I love (Live in Berlin)
TTITLE13=Paul Smith Quartet - My favourite things
EXTD=YEAR: 2016
EXTT0=
EXTT1=
EXTT2=
EXTT3=
EXTT4=
EXTT5=
EXTT6=
EXTT7=
EXTT8=
EXTT9=
EXTT10=
EXTT11=
EXTT12=
EXTT13=
PLAYORDER=
